<svg width="1254" height="1254" viewBox="0 0 1254 1254" fill="none" xmlns="http://www.w3.org/2000/svg">
<path d="M685.784 115.52C714.651 114.446 747.318 115.736 776.621 115.368C801.112 115.06 833.636 114.781 857.554 116.483C906.147 120.162 953.052 134.773 994.234 159.058C1062.25 199.129 1110.43 262.656 1128.22 335.724C1131.55 349.58 1133.69 363.663 1134.6 377.839C1135.73 395.497 1135.31 414.209 1135.27 431.961L1135.29 501.994L1134.96 551.091C1134.72 578.65 1137.6 602.471 1100.26 609.247C1084.51 609.708 1066.35 609.342 1050.43 609.36L950.227 609.362L896.84 609.378C880.12 609.375 860.625 611.623 846.71 601.83C839.618 596.78 834.601 589.619 832.499 581.542C830.5 574.182 830.995 564.288 831.038 556.584L831.281 516.402C831.515 469.8 825.667 466.219 781.553 447.633L718.373 421.2C673.264 402.707 645.426 397.247 649.772 345.358C650.08 341.682 649.772 336.005 649.774 332.139L649.8 263.461L649.781 187.136C649.791 157.932 642.845 119.978 685.784 115.52Z" fill="#10223F"/>
<path d="M415.96 115.584C459.044 113.864 504.116 116.605 547.398 115.461C554.398 115.276 564.89 115.249 571.58 116.529C588.302 119.727 601.406 135.437 600.921 151.277C600.99 201.931 600.98 252.44 600.977 303.022L600.958 346.579C600.943 365.155 602.626 380.375 587.604 394.897C583.71 398.671 579.264 401.914 574.396 404.529C566.873 408.591 550.192 414.924 541.302 418.59L480.637 443.755C422.78 467.743 419.31 466.203 419.284 526.136C419.309 537.324 419.21 548.514 418.986 559.702C418.846 566.965 419.031 574.776 417.069 581.802C415.352 588.178 411.811 594.002 406.825 598.658C401.809 603.272 395.542 606.53 388.69 608.083C380.46 609.967 363.293 609.429 354.321 609.431L301.689 609.372L197.506 609.37C187.78 609.384 155.548 610.017 147.246 608.799C139.998 607.791 133.242 604.787 127.843 600.175C119.069 592.775 115.404 584.201 115.317 573.334C115.462 535.428 114.917 497.404 115.269 459.504C115.54 430.368 113.824 398.588 116.667 369.703C123.19 308.272 151.38 250.58 196.84 205.631C256.003 146.913 330.288 118.184 415.96 115.584Z" fill="#10223F"/>
<path d="M874.971 658.772L1026.79 658.715L1074.97 658.661C1090.56 658.647 1107.75 656.741 1121.37 664.569C1142.02 676.432 1138.83 699.783 1138.81 719.136L1138.7 761.766L1138.75 830.443C1138.77 847.893 1139.06 866.029 1137.57 883.426C1134.04 923.562 1121.12 962.491 1099.69 997.476C1057.38 1066.47 990.576 1110.08 909.173 1130.89C872.535 1138.22 849.282 1138.97 811.788 1138.96L748.976 1138.98L711.349 1138.97C702.894 1138.97 694.156 1139.23 685.787 1138.25C668.523 1136.22 655.219 1122.17 654.223 1106.17C653.478 1094.23 653.822 1082 653.842 1070.04L653.911 1001.36L653.826 933.903C653.819 924.385 653.204 905.196 654.766 896.363C656.387 887.49 660.777 879.256 667.39 872.686C670.869 869.174 674.887 866.161 679.315 863.745C686.473 859.754 705.2 852.396 713.381 848.948L780.29 820.895C801.967 811.884 827.754 804.789 833.32 780.467C835.492 770.978 834.843 760.314 834.842 750.607C834.8 736.581 834.84 722.555 834.963 708.53C835.059 701.655 834.878 693.672 836.603 687.036C838.045 681.436 840.83 676.213 844.747 671.755C852.793 662.761 863.017 659.57 874.971 658.772Z" fill="#10223F"/>
<path d="M157.754 658.811L308.362 658.653L355.091 658.668C372.272 658.68 390.983 656.656 404.745 667.96C420.774 681.126 418.508 697.462 418.583 715.246C418.738 733.728 418.115 752.284 418.732 770.754C419.11 782.032 423.346 792.011 431.914 800.029C435.288 803.188 439.11 805.903 443.273 808.099C451.456 812.443 470.202 819.638 479.307 823.462L548.739 852.826C559.893 857.544 574.829 862.837 583.683 870.269C594.22 879.116 600.607 891.019 600.841 904.295C601.102 919.219 600.975 934.439 600.96 949.395L600.941 1033.21L601.015 1080.18C601.103 1101.93 604.232 1126.88 575.844 1136.33C569.741 1138.35 565.65 1138.28 559.32 1138.32L463.407 1138.31C439.191 1138.32 410.41 1139.14 386.864 1136.64C321.031 1129.66 260.784 1103.33 212.067 1061.99C153.507 1011.76 118.78 941.944 115.522 867.888C114.865 853.782 115.23 837.885 115.256 823.588L115.21 756.139L115.18 715.785C115.185 706.998 114.628 697.538 116.08 688.891C119.685 667.44 136.764 659.391 157.754 658.811Z" fill="#10223F"/>
</svg>
