<svg width="1024" height="1024" viewBox="0 0 1024 1024" fill="none" xmlns="http://www.w3.org/2000/svg">
<path d="M570.784 0.520301C599.651 -0.55434 632.318 0.735681 661.62 0.367765C686.112 0.0603919 718.636 -0.219029 742.553 1.48317C791.147 5.16233 838.052 19.773 879.234 44.0578C947.252 84.1292 995.429 147.656 1013.22 220.724C1016.55 234.58 1018.69 248.663 1019.6 262.839C1020.73 280.497 1020.31 299.209 1020.27 316.961L1020.29 386.994L1019.96 436.091C1019.72 463.65 1022.6 487.471 985.258 494.247C969.513 494.708 951.351 494.342 935.429 494.36L835.227 494.362L781.84 494.378C765.12 494.375 745.625 496.623 731.71 486.83C724.617 481.78 719.601 474.619 717.499 466.542C715.5 459.182 715.995 449.288 716.038 441.584L716.281 401.402C716.515 354.8 710.667 351.219 666.553 332.633L603.373 306.2C558.264 287.707 530.426 282.247 534.772 230.358C535.08 226.682 534.772 221.005 534.773 217.139L534.8 148.461L534.781 72.1359C534.791 42.9319 527.845 4.97837 570.784 0.520301Z" fill="white"/>
<path d="M300.96 0.584351C344.044 -1.13647 389.116 1.60543 432.398 0.460933C439.398 0.275811 449.89 0.249041 456.58 1.5286C473.302 4.72691 486.406 20.4367 485.921 36.2769C485.99 86.9305 485.98 137.44 485.977 188.022L485.958 231.579C485.943 250.155 487.626 265.375 472.604 279.897C468.71 283.671 464.264 286.914 459.396 289.529C451.873 293.591 435.192 299.924 426.302 303.59L365.637 328.755C307.78 352.743 304.31 351.203 304.284 411.136C304.309 422.324 304.21 433.514 303.986 444.702C303.846 451.965 304.031 459.776 302.069 466.802C300.352 473.178 296.811 479.002 291.825 483.658C286.809 488.272 280.542 491.53 273.69 493.083C265.46 494.967 248.293 494.429 239.321 494.431L186.689 494.372L82.5059 494.37C72.7804 494.384 40.5476 495.017 32.2457 493.799C24.9985 492.791 18.2417 489.787 12.8435 485.175C4.06874 477.775 0.404472 469.201 0.3169 458.334C0.462019 420.428 -0.0834424 382.404 0.269348 344.504C0.539571 315.368 -1.17559 283.588 1.66676 254.703C8.18963 193.272 36.3804 135.58 81.8403 90.6306C141.003 31.9131 215.288 3.18421 300.96 0.584351Z" fill="white"/>
<path d="M759.971 543.772L911.79 543.715L959.968 543.661C975.556 543.647 992.745 541.741 1006.37 549.569C1027.02 561.432 1023.83 584.783 1023.81 604.136L1023.7 646.766L1023.75 715.443C1023.77 732.893 1024.06 751.029 1022.57 768.426C1019.04 808.562 1006.12 847.491 984.689 882.476C942.377 951.469 875.576 995.084 794.173 1015.89C757.535 1023.22 734.282 1023.97 696.788 1023.96L633.976 1023.98L596.349 1023.97C587.894 1023.97 579.156 1024.23 570.787 1023.25C553.523 1021.22 540.219 1007.17 539.223 991.172C538.478 979.226 538.822 967.001 538.842 955.044L538.911 886.363L538.826 818.903C538.819 809.385 538.204 790.196 539.766 781.363C541.387 772.49 545.777 764.256 552.39 757.686C555.869 754.174 559.887 751.161 564.315 748.745C571.473 744.754 590.2 737.396 598.381 733.948L665.29 705.895C686.967 696.884 712.754 689.789 718.32 665.467C720.492 655.978 719.843 645.314 719.842 635.607C719.8 621.581 719.84 607.555 719.963 593.53C720.059 586.655 719.878 578.672 721.603 572.036C723.045 566.436 725.83 561.213 729.747 556.755C737.793 547.761 748.017 544.57 759.971 543.772Z" fill="white"/>
<path d="M42.7543 543.811L193.362 543.653L240.091 543.668C257.272 543.68 275.983 541.656 289.745 552.96C305.774 566.126 303.508 582.462 303.583 600.246C303.738 618.728 303.115 637.284 303.732 655.754C304.11 667.032 308.346 677.011 316.914 685.029C320.288 688.188 324.11 690.903 328.273 693.099C336.456 697.443 355.202 704.638 364.307 708.462L433.739 737.826C444.893 742.544 459.829 747.837 468.683 755.269C479.22 764.116 485.607 776.019 485.841 789.295C486.102 804.219 485.975 819.439 485.96 834.395L485.941 918.207L486.015 965.185C486.103 986.934 489.232 1011.88 460.844 1021.33C454.741 1023.35 450.65 1023.28 444.32 1023.32L348.407 1023.31C324.191 1023.32 295.41 1024.14 271.864 1021.64C206.031 1014.66 145.784 988.331 97.0665 946.995C38.507 896.764 3.77968 826.944 0.521998 752.888C-0.134793 738.782 0.230492 722.885 0.255513 708.588L0.210481 641.139L0.180454 600.785C0.185458 591.998 -0.37249 582.538 1.07996 573.891C4.68543 552.44 21.7645 544.391 42.7543 543.811Z" fill="white"/>
</svg>
