<svg width="1981" height="336" viewBox="0 0 1981 336" fill="none" xmlns="http://www.w3.org/2000/svg">
<path d="M1501.97 82.376C1550.92 77.901 1594.25 113.941 1598.76 162.895C1603.27 211.848 1567.27 255.201 1518.32 259.752C1469.31 264.308 1425.9 228.254 1421.38 179.246C1416.87 130.238 1452.95 86.8552 1501.97 82.376ZM1573.4 163.482C1568.97 128.515 1537.11 103.705 1502.12 107.971C1466.89 112.265 1441.87 144.393 1446.34 179.603C1450.8 214.813 1483.05 239.675 1518.24 235.036C1553.19 230.429 1577.84 198.449 1573.4 163.482Z" fill="#10223F"/>
<path d="M1763.75 177.009C1777.79 139.511 1814.74 123.553 1851.98 137.73C1866.83 143.221 1878.82 154.485 1885.23 168.957C1890.59 181.026 1891.11 191.51 1890.66 204.418L1785.9 204.478C1795.78 241.811 1840.67 248.249 1864.31 222.432C1871.08 226.09 1878.26 229.82 1884.87 233.677C1863.63 262.746 1813.42 265.921 1785.71 245.466C1772.82 235.757 1764.23 221.399 1761.78 205.45C1761.37 202.795 1761.12 199.914 1760.92 197.227C1761.49 189.366 1761.72 184.753 1763.75 177.009ZM1866.29 184.75C1859.49 161.128 1842.98 152.673 1818.77 155.685C1800.85 159.677 1791.36 166.784 1785.93 184.708C1802.91 184.933 1819.89 184.988 1836.87 184.872C1846.59 184.853 1856.6 184.955 1866.29 184.75Z" fill="#10223F"/>
<path d="M1681.89 132.824C1707.85 129.544 1734.97 145.74 1738.96 171.65C1742.78 196.469 1740.98 228.922 1740.9 254.349L1716.71 254.372C1716.14 231.478 1718.75 202.07 1715.44 179.711C1712.17 157.619 1688.83 151.41 1668.63 156.136C1663.93 157.673 1658.57 160.305 1655.06 163.852C1650.92 168.089 1648.04 173.39 1646.74 179.166C1644.52 188.585 1645.58 241.752 1645.59 254.326L1621.37 254.405C1621.8 214.992 1621.03 174.837 1621.12 135.263L1645.88 135.147L1646.01 150.297C1657.68 138.616 1665.25 134.708 1681.89 132.824Z" fill="#10223F"/>
<path d="M1011.54 128.518C1031.4 127.343 1044.81 132.027 1059.54 145.164L1059.88 131.056L1084.9 131.067C1084.83 169.121 1084.93 207.089 1084.73 245.327C1084.51 287.499 1056.66 309.924 1015.54 308.089C994.217 307.138 978.707 299.808 964.287 284.099C969.107 280.319 974.048 276.131 978.808 272.225C979.338 271.812 982.317 269.414 983.067 270.058C986.747 273.033 991.587 278.674 995.747 280.819C1012.03 289.231 1036.79 288.894 1050.25 275.359C1061.44 264.109 1059.76 248.622 1059.67 234.219C1037.75 256.145 1004.06 259.25 979.027 240.637C965.758 230.568 957.038 215.629 954.808 199.121C952.298 182.207 956.657 164.991 966.907 151.307C977.547 137.383 991.328 131.002 1008.4 128.796C1009.44 128.668 1010.49 128.576 1011.54 128.518ZM1060.1 180.858C1054.98 158.752 1032.93 144.967 1010.81 150.052C988.648 155.148 974.827 177.259 979.957 199.411C985.087 221.564 1007.22 235.351 1029.37 230.19C1051.46 225.039 1065.22 202.964 1060.1 180.858Z" fill="#10223F"/>
<path d="M1213.14 239.325C1222.49 241.88 1233.33 238.012 1237.75 241.426L1238.47 240.726C1238.47 243.531 1239 247.81 1237.58 249.647C1231.76 250.696 1219.89 250.324 1213.56 250.313C1212.95 247.567 1213.13 242.319 1213.14 239.325Z" fill="#10223F"/>
<path d="M1133.48 137.964C1159.26 122.072 1190.52 126.025 1212.87 145.615L1213.07 131.02L1238.71 131.163L1238.47 240.726C1238.47 243.531 1239 247.81 1237.58 249.647C1231.76 250.696 1219.89 250.324 1213.56 250.313C1212.95 247.567 1213.13 242.319 1213.14 239.325L1212.15 237.258C1192.66 250.115 1181.98 257.744 1155.21 252.28C1139.31 249.184 1125.32 239.83 1116.39 226.318C1098.21 198.492 1104.53 155.816 1133.48 137.964ZM1213.78 183.198C1209.39 160.433 1187.33 145.573 1164.59 150.057C1141.98 154.514 1127.22 176.41 1131.58 199.038C1135.95 221.667 1157.78 236.512 1180.43 232.247C1203.21 227.956 1218.16 205.963 1213.78 183.198Z" fill="#10223F"/>
<path d="M677.734 240.188C614.976 183.308 691.043 87.8221 761.412 145.081L761.686 130.944L787.162 131.068L787.14 238.915C787.176 242.171 787.64 246.902 786.148 249.593C781.168 250.778 768.206 250.475 762.971 249.982L761.553 248.851C761.686 244.675 761.497 240.004 761.415 235.782C739.493 256.811 699.656 260.057 677.734 240.188ZM762.232 182.42C757.61 159.768 735.408 145.226 712.795 150.042C690.456 154.801 676.127 176.678 680.694 199.057C685.261 221.437 707.013 235.952 729.431 231.579C752.123 227.151 766.854 205.074 762.232 182.42Z" fill="#10223F"/>
<path d="M436.207 82.5752C455.251 82.7302 501.881 80.3303 517.742 84.3242C580.815 100.207 577.575 189.753 503.633 193.73L461.44 193.65L461.582 250.082L436.001 250.037L436.207 82.5752ZM535.699 146.31C542.266 98.11 493.211 106.545 461.684 106.705L461.529 171.541C482.803 171.725 510.949 175.661 527.073 162.638C531.191 157.776 534.807 152.853 535.699 146.31Z" fill="#10223F"/>
<path d="M873.433 128.769C875.367 128.611 877.307 128.53 879.248 128.524C894.26 128.514 908.239 132.439 919.037 143.315C936.907 161.303 934.357 186.269 934.267 209.563L934.117 250.302L909.605 250.344C909.442 226.902 911.027 201.483 909.066 178.355C907.024 154.252 883.661 148.39 863.667 151.794C858.661 153.461 853.397 155.551 849.576 159.318C845.375 163.518 842.441 168.816 841.112 174.606C838.809 184.258 839.933 237.57 839.956 250.169L815.355 250.241L815.286 131.078L840.718 130.978L840.684 145.459C850.742 134.334 859.011 130.909 873.433 128.769Z" fill="#10223F"/>
<path d="M1325.29 128.78C1326.79 128.629 1328.28 128.551 1329.78 128.546C1355.01 128.427 1378.35 141.739 1382.69 166.956C1386.83 191.052 1384.81 225.454 1384.68 250.236L1360.47 250.419C1360.42 234.064 1360.74 217.693 1360.72 201.315C1360.69 185.103 1362.61 166.733 1347.36 156.226C1337.21 149.24 1326.11 149.9 1314.59 151.97C1291.08 160.261 1291.82 178.355 1292.07 199.698C1292.27 216.477 1292.38 233.585 1292.21 250.377C1284.25 250.131 1275.7 250.259 1267.7 250.248L1267.82 130.856C1276.16 130.718 1284.86 130.929 1293.24 131.017L1293.32 145.322C1303.69 134.097 1310.56 131.252 1325.29 128.78Z" fill="#10223F"/>
<path d="M632.175 129.634C654.185 126.31 649.16 137.786 649.137 154.56C629.358 149.879 608.38 158.529 605.234 179.044C602.07 199.681 603.66 229.008 603.705 250.085C599.086 250.145 582.813 250.807 579.26 249.238L579.165 130.908L603.936 130.929L603.998 148.759C612.829 136.919 618.377 133.682 632.175 129.634Z" fill="#10223F"/>
<path d="M251.648 23.1473C259.823 22.843 269.074 23.2083 277.373 23.1042C284.309 23.0171 293.52 22.938 300.294 23.42C314.055 24.462 327.339 28.5998 339.002 35.4773C358.265 46.8257 371.909 64.8168 376.947 85.5097C377.889 89.4338 378.495 93.4223 378.754 97.4367C379.073 102.438 378.956 107.737 378.945 112.764L378.949 132.598L378.857 146.502C378.789 154.307 379.604 161.053 369.028 162.972C364.569 163.103 359.426 162.999 354.916 163.004L326.539 163.005L311.419 163.009C306.684 163.009 301.163 163.645 297.222 160.872C295.214 159.442 293.793 157.413 293.198 155.126C292.632 153.042 292.772 150.24 292.784 148.058L292.853 136.678C292.919 123.481 291.263 122.466 278.77 117.203L260.877 109.717C248.102 104.479 240.218 102.933 241.449 88.2382C241.536 87.1969 241.449 85.5892 241.45 84.4945L241.457 65.0446L241.452 43.4291C241.455 35.1585 239.487 24.4099 251.648 23.1473Z" fill="#10223F"/>
<path d="M175.233 23.1655C187.434 22.6781 200.199 23.4547 212.456 23.1305C214.439 23.0781 217.41 23.0705 219.305 23.4329C224.041 24.3387 227.752 28.7877 227.614 33.2737C227.634 47.619 227.631 61.9234 227.63 76.2486L227.625 88.5838C227.621 93.8446 228.097 98.1549 223.843 102.268C222.74 103.337 221.481 104.255 220.103 104.995C217.972 106.146 213.248 107.939 210.73 108.978L193.549 116.104C177.164 122.898 176.182 122.462 176.174 139.435C176.181 142.604 176.153 145.773 176.09 148.941C176.05 150.998 176.103 153.21 175.547 155.2C175.061 157.006 174.058 158.655 172.646 159.974C171.225 161.28 169.45 162.203 167.51 162.643C165.179 163.176 160.317 163.024 157.777 163.025L142.871 163.008L113.366 163.007C110.612 163.011 101.483 163.19 99.1321 162.845C97.0797 162.56 95.1661 161.709 93.6373 160.403C91.1523 158.307 90.1145 155.879 90.0897 152.802C90.1308 142.066 89.9764 131.298 90.0763 120.565C90.1528 112.313 89.6671 103.313 90.472 95.1326C92.3193 77.7353 100.303 61.3968 113.177 48.6669C129.932 32.0379 150.97 23.9018 175.233 23.1655Z" fill="#10223F"/>
<path d="M305.226 176.998L348.221 176.982L361.866 176.967C366.28 176.963 371.148 176.423 375.007 178.64C380.856 181.999 379.953 188.612 379.946 194.093L379.914 206.166L379.928 225.616C379.935 230.558 380.016 235.694 379.595 240.621C378.596 251.987 374.936 263.012 368.867 272.92C356.884 292.459 337.966 304.811 314.912 310.703C304.536 312.78 297.951 312.991 287.332 312.988L269.544 312.995L258.888 312.991C256.493 312.991 254.018 313.064 251.649 312.787C246.759 312.213 242.991 308.233 242.709 303.703C242.499 300.32 242.596 296.858 242.602 293.471L242.621 274.021L242.597 254.916C242.595 252.22 242.421 246.786 242.863 244.284C243.322 241.772 244.565 239.44 246.438 237.579C247.424 236.585 248.562 235.731 249.815 235.047C251.843 233.917 257.146 231.833 259.463 230.856L278.412 222.912C284.551 220.36 291.854 218.35 293.43 211.462C294.045 208.775 293.861 205.755 293.861 203.006C293.849 199.034 293.861 195.062 293.896 191.09C293.923 189.143 293.871 186.882 294.36 185.002C294.768 183.416 295.557 181.937 296.666 180.675C298.945 178.128 301.841 177.224 305.226 176.998Z" fill="#10223F"/>
<path d="M102.108 177.009L144.761 176.964L157.994 176.969C162.86 176.972 168.159 176.399 172.057 179.6C176.596 183.329 175.954 187.955 175.976 192.991C176.02 198.226 175.843 203.481 176.018 208.712C176.125 211.905 177.324 214.732 179.751 217.002C180.707 217.897 181.789 218.666 182.968 219.288C185.286 220.518 190.594 222.556 193.173 223.639L212.836 231.955C215.995 233.291 220.225 234.79 222.732 236.894C225.717 239.4 227.525 242.771 227.592 246.531C227.666 250.757 227.63 255.068 227.625 259.303L227.62 283.039L227.641 296.343C227.666 302.503 228.552 309.569 220.512 312.243C218.784 312.817 217.626 312.797 215.833 312.807L188.67 312.803C181.812 312.807 173.661 313.041 166.993 312.332C148.349 310.354 131.287 302.898 117.49 291.192C100.905 276.966 91.0704 257.193 90.1479 236.22C89.9619 232.225 90.0653 227.723 90.0724 223.674L90.0596 204.573L90.0511 193.144C90.0525 190.656 89.8945 187.977 90.3059 185.528C91.327 179.453 96.1638 177.173 102.108 177.009Z" fill="#10223F"/>
</svg>
