<svg width="1024" height="1024" viewBox="0 0 1024 1024" fill="none" xmlns="http://www.w3.org/2000/svg">
<path d="M347.959 112.457C381.738 111.112 417.076 113.254 451.01 112.36C456.497 112.215 464.724 112.195 469.969 113.194C483.079 115.693 493.353 127.966 492.973 140.34C493.027 179.912 493.019 219.372 493.017 258.888L493.002 292.915C492.99 307.428 494.31 319.318 482.532 330.663C479.479 333.612 475.993 336.145 472.177 338.188C466.278 341.361 453.2 346.308 446.23 349.173L398.667 368.832C353.307 387.572 350.586 386.369 350.565 433.19C350.585 441.931 350.507 450.673 350.332 459.413C350.222 465.087 350.367 471.19 348.829 476.678C347.482 481.66 344.707 486.209 340.797 489.847C336.865 493.451 331.951 495.996 326.579 497.21C320.127 498.681 306.667 498.261 299.633 498.263L258.368 498.217L176.686 498.215C169.061 498.226 143.79 498.721 137.281 497.769C131.599 496.981 126.302 494.635 122.07 491.032C115.19 485.251 112.317 478.553 112.248 470.063C112.362 440.45 111.935 410.745 112.211 381.136C112.423 358.374 111.078 333.546 113.307 310.981C118.421 262.989 140.523 217.919 176.165 182.803C222.549 136.931 280.79 114.488 347.959 112.457Z" fill="#10223F"/>
<path d="M559.508 112.406C582.139 111.567 607.751 112.575 630.725 112.287C649.927 112.047 675.427 111.829 694.178 113.159C732.277 116.033 769.051 127.447 801.339 146.419C854.667 177.724 892.439 227.353 906.386 284.435C908.995 295.26 910.672 306.263 911.388 317.337C912.271 331.132 911.948 345.75 911.918 359.618L911.928 414.33L911.673 452.686C911.487 474.216 913.742 492.826 884.465 498.119C872.12 498.48 857.88 498.193 845.397 498.208L766.837 498.209L724.98 498.221C711.871 498.219 696.586 499.975 685.677 492.324C680.116 488.38 676.183 482.785 674.535 476.475C672.968 470.726 673.356 462.996 673.39 456.977L673.58 425.586C673.763 389.18 669.179 386.382 634.593 371.862L585.057 351.212C549.691 336.764 527.866 332.499 531.273 291.962C531.515 289.09 531.273 284.655 531.274 281.635L531.295 227.982L531.28 168.354C531.288 145.54 525.842 115.889 559.508 112.406Z" fill="#10223F"/>
<path d="M704.632 536.833L823.661 536.788L861.434 536.746C873.656 536.735 887.132 535.246 897.814 541.362C914.007 550.629 911.506 568.872 911.487 583.991L911.398 617.295L911.437 670.947C911.457 684.58 911.683 698.748 910.515 712.339C907.749 743.694 897.617 774.106 880.816 801.437C847.643 855.337 795.269 889.41 731.447 905.664C702.722 911.394 684.492 911.976 655.095 911.967L605.849 911.986L576.349 911.976C569.72 911.976 562.869 912.177 556.308 911.412C542.773 909.83 532.341 898.851 531.561 886.354C530.977 877.021 531.247 867.471 531.262 858.129L531.316 804.475L531.25 751.773C531.244 744.337 530.762 729.346 531.986 722.445C533.258 715.513 536.699 709.081 541.884 703.948C544.612 701.205 547.762 698.851 551.233 696.964C556.846 693.846 571.528 688.097 577.942 685.404L630.4 663.487C647.395 656.448 667.613 650.905 671.977 631.904C673.68 624.491 673.171 616.16 673.17 608.577C673.137 597.62 673.169 586.662 673.265 575.705C673.341 570.334 673.198 564.098 674.551 558.914C675.682 554.539 677.865 550.458 680.936 546.975C687.244 539.949 695.26 537.457 704.632 536.833Z" fill="#10223F"/>
<path d="M145.52 536.864L263.6 536.74L300.236 536.752C313.707 536.761 328.377 535.18 339.167 544.011C351.733 554.297 349.957 567.059 350.016 580.952C350.137 595.39 349.649 609.887 350.132 624.317C350.429 633.127 353.75 640.923 360.467 647.187C363.113 649.655 366.109 651.776 369.373 653.491C375.789 656.885 390.486 662.506 397.625 665.493L452.061 688.434C460.806 692.119 472.516 696.254 479.458 702.06C487.719 708.972 492.726 718.27 492.91 728.642C493.115 740.301 493.015 752.191 493.003 763.876L492.988 829.351L493.046 866.052C493.116 883.043 495.569 902.535 473.312 909.912C468.527 911.494 465.32 911.44 460.357 911.467L385.159 911.458C366.173 911.467 343.608 912.113 325.148 910.157C273.533 904.7 226.298 884.134 188.102 851.842C142.19 812.6 114.963 758.054 112.409 700.2C111.894 689.18 112.181 676.761 112.2 665.591L112.165 612.899L112.141 581.373C112.145 574.508 111.708 567.118 112.847 560.363C115.673 543.605 129.064 537.317 145.52 536.864Z" fill="#10223F"/>
</svg>
